<?xml version="1.0" encoding="utf-8"?>
<!-- Generator: Adobe Illustrator 16.0.0, SVG Export Plug-In . SVG Version: 6.00 Build 0)  -->
<!DOCTYPE svg PUBLIC "-//W3C//DTD SVG 1.1//EN" "http://www.w3.org/Graphics/SVG/1.1/DTD/svg11.dtd">
<svg version="1.1" id="Layer_1" xmlns="http://www.w3.org/2000/svg" xmlns:xlink="http://www.w3.org/1999/xlink" x="0px" y="0px"
	 width="34px" height="35px" viewBox="0 0 34 35" enable-background="new 0 0 34 35" xml:space="preserve">
<path d="M17.435,1.104c-0.276-0.127-0.593-0.127-0.869,0L1.617,7.964C1.24,8.138,0.996,8.519,0.996,8.94v17.24
	c0,0.423,0.247,0.807,0.629,0.978l14.946,6.738c0.273,0.122,0.584,0.122,0.857,0l14.945-6.738C32.754,26.986,33,26.603,33,26.18
	V8.94c0-0.421-0.243-0.802-0.619-0.976L17.435,1.104z M14.628,30.389l-11.26-5.075V11.948l11.26,5.074V30.389z"/>
</svg>
